# xmcd CD database file
#
# Track frame offsets:
#	150
#	4930
#	24617
#	42430
#	67230
#	94070
#	117857
#	138325
#	164747
#	187755
#
# Disc length: 2737 seconds
#
# Revision: 0
# Processed by: cddbd v1.5.1PL0 Copyright (c) Steve Scherf et al.
# Submitted via: CDex 1.51
#
DISCID=880aaf0a
DTITLE=GOMES THE HITMAN - mono
DYEAR=2002
DGENRE=JPop
TTITLE0=6PM intro
TTITLE1=別れの歌
TTITLE2=夜明けまで（情熱スタンダードvol.1）
TTITLE3=目に見えないもの
TTITLE4=言葉の海に声を沈めて
TTITLE5=情熱スタンダード
TTITLE6=笑う人
TTITLE7=忘れな草
TTITLE8=百年の孤独
TTITLE9=表通り
EXTD=YEAR: 2002
EXTT0=
EXTT1=
EXTT2=
EXTT3=
EXTT4=
EXTT5=
EXTT6=
EXTT7=
EXTT8=
EXTT9=
PLAYORDER=
